<svg width="48" height="48" viewBox="0 0 48 48" fill="none" xmlns="http://www.w3.org/2000/svg" xmlns:xlink="http://www.w3.org/1999/xlink">
<path d="M24,45.5C12.14,45.5 2.5,35.86 2.5,24C2.5,12.14 12.14,2.5 24,2.5C35.86,2.5 45.5,12.14 45.5,24C45.5,35.86 35.86,45.5 24,45.5ZM24,5.5C13.8,5.5 5.5,13.8 5.5,24C5.5,34.2 13.8,42.5 24,42.5C34.2,42.5 42.5,34.2 42.5,24C42.5,13.8 34.2,5.5 24,5.5Z" fill="#292D32"/>
<path d="M24,30.016C23.62,30.016 23.24,29.876 22.94,29.576L15.88,22.516C15.3,21.936 15.3,20.976 15.88,20.396C16.46,19.816 17.42,19.816 18,20.396L24,26.396L30,20.396C30.58,19.816 31.54,19.816 32.12,20.396C32.7,20.976 32.7,21.936 32.12,22.516L25.06,29.576C24.76,29.876 24.38,30.016 24,30.016Z" fill="#292D32"/>
</svg>
