<svg width="236" height="40" viewBox="0 0 236 40" fill="none" xmlns="http://www.w3.org/2000/svg" xmlns:xlink="http://www.w3.org/1999/xlink">
<mask id="mask_0_1156_1807" style="mask-type:alpha" maskUnits="userSpaceOnUse" x="0.11084" y="0" width="117.877289" height="20">
</mask>
<mask id="mask_0_1156_1812" style="mask-type:alpha" maskUnits="userSpaceOnUse" x="0.11084" y="0" width="117.877289" height="20">
</mask>
<g mask="url(#mask_0_1156_1807)">
<path d="M10.853,26.47L5.839,26.466L5.839,20.48C5.839,19.195 6.336,18.536 7.428,18.38L10.844,18.38C13.28,18.38 14.855,19.918 14.864,22.404C14.864,24.96 13.326,26.47 10.853,26.47ZM5.839,10.317L5.839,8.743C5.839,7.361 6.419,6.707 7.704,6.624L10.269,6.624C12.465,6.624 13.782,7.941 13.782,10.142C13.782,11.823 12.879,13.78 10.347,13.78L5.839,13.78L5.839,10.317ZM17.244,16.294L16.342,15.783L17.129,15.106C18.055,14.319 19.588,12.537 19.588,9.465C19.588,4.764 15.946,1.734 10.305,1.734L3.141,1.734C1.469,1.794 0.129,3.162 0.111,4.833L0.111,31.503L10.439,31.503C16.71,31.503 20.753,28.091 20.753,22.805C20.753,19.969 19.441,17.533 17.244,16.294Z" fill="#191825" fill-opacity="0.5"/>
</g>
<g mask="url(#mask_0_1156_1812)">
<path d="M228.65,9.606C226.081,9.611 223.645,10.794 222.042,12.811L221.596,13.373L221.246,12.742C220.104,10.661 218.147,9.611 215.412,9.611C212.552,9.611 210.632,11.204 209.739,12.157L209.159,12.788L208.933,11.955C208.611,10.757 207.543,10.099 205.931,10.099L203.343,10.099L203.316,31.602L209.191,31.602L209.191,22.108C209.191,21.274 209.292,20.455 209.5,19.594C210.061,17.3 211.604,14.832 214.196,15.076C215.789,15.233 216.572,16.467 216.572,18.848L216.572,31.598L222.489,31.598L222.489,22.103C222.489,21.062 222.586,20.28 222.821,19.506C223.29,17.314 224.907,15.067 227.407,15.067C229.216,15.067 229.889,16.089 229.889,18.848L229.889,28.453C229.889,30.622 230.856,31.598 233.029,31.598L235.792,31.598L235.796,17.871C235.815,12.383 233.397,9.606 228.65,9.606ZM175.177,24.134C175.159,24.152 172.631,26.823 169.302,26.823C166.267,26.823 163.205,24.962 163.205,20.809C163.205,17.222 165.581,14.713 168.984,14.713C170.089,14.713 171.341,15.109 171.539,15.772L171.567,15.882C171.825,16.826 172.686,17.475 173.658,17.471L176.876,17.475L176.876,14.657C176.876,10.941 172.157,9.602 168.975,9.602C162.178,9.602 157.251,14.33 157.251,20.846C157.251,27.357 162.128,32.086 168.85,32.086C174.684,32.086 177.852,28.25 177.885,28.218L178.05,28.011L175.499,23.779L175.177,24.134Z" fill="#191825" fill-opacity="0.5"/>
</g>
</svg>
