<svg width="236" height="40" viewBox="0 0 236 40" fill="none" xmlns="http://www.w3.org/2000/svg" xmlns:xlink="http://www.w3.org/1999/xlink">
<mask id="mask_0_1156_1765" style="mask-type:alpha" maskUnits="userSpaceOnUse" x="0.11084" y="0" width="117.877289" height="20">
</mask>
<mask id="mask_0_1156_1770" style="mask-type:alpha" maskUnits="userSpaceOnUse" x="0.11084" y="0" width="117.877289" height="20">
</mask>
<mask id="mask_0_1156_1775" style="mask-type:alpha" maskUnits="userSpaceOnUse" x="0.11084" y="0" width="117.877289" height="20">
</mask>
<g mask="url(#mask_0_1156_1765)">
<path d="M92.557,4.376C92.557,2.401 94.16,0.789 96.144,0.789C98.119,0.789 99.731,2.391 99.731,4.376C99.662,6.351 97.995,7.894 96.015,7.825C94.136,7.756 92.631,6.25 92.557,4.376Z" fill="#191825" fill-opacity="0.5"/>
</g>
<g mask="url(#mask_0_1156_1770)">
<path d="M149.087,28.276C149.087,26.287 150.69,24.68 152.661,24.68C154.645,24.68 156.252,26.287 156.252,28.276C156.252,30.26 154.645,31.867 152.661,31.867C150.69,31.867 149.087,30.256 149.087,28.276Z" fill="#191825" fill-opacity="0.5"/>
</g>
<g mask="url(#mask_0_1156_1775)">
<path d="M33.771,26.717C30.69,26.717 28.54,24.267 28.54,20.763C28.54,17.264 30.686,14.814 33.771,14.814C36.87,14.814 39.043,17.264 39.043,20.763C39.038,24.323 36.92,26.717 33.771,26.717ZM33.771,9.583C27.246,9.583 22.508,14.285 22.508,20.763C22.508,27.242 27.251,31.943 33.771,31.943C40.328,31.943 45.079,27.242 45.079,20.768C45.079,14.285 40.318,9.583 33.771,9.583ZM85.623,21.325C85.397,20.888 85.107,20.478 84.771,20.119L84.573,19.911L84.78,19.713C85.079,19.396 85.388,19.023 85.678,18.59L91.438,10.025L84.444,10.025L80.116,16.725C79.872,17.089 79.379,17.259 78.638,17.259L77.648,17.259L77.648,4.592C77.648,2.059 76.073,1.719 74.365,1.719L71.445,1.719L71.45,31.612L77.643,31.612L77.643,22.651L78.223,22.651C78.928,22.651 79.407,22.734 79.632,23.116L83.049,29.567C84.007,31.317 84.955,31.616 86.742,31.616L91.503,31.616L87.962,25.773L85.623,21.325ZM115.709,9.537C112.555,9.537 110.543,10.937 109.419,12.125L109.046,12.507L108.913,11.992C108.581,10.721 107.467,10.03 105.786,10.03L103.01,10.03L103.028,31.616L109.184,31.616L109.184,21.67C109.184,20.694 109.309,19.856 109.567,19.083C110.253,16.753 112.164,15.298 114.549,15.298C116.469,15.298 117.224,16.311 117.224,18.935L117.224,28.338C117.224,30.571 118.255,31.621 120.498,31.621L123.422,31.621L123.408,17.89C123.408,12.415 120.742,9.537 115.709,9.537ZM96.223,10.025L93.303,10.025L93.322,26.717L93.322,31.612L96.434,31.612L96.545,31.616L98,31.612L99.441,31.612L99.441,31.607L99.455,31.607L99.469,13.308C99.46,11.098 98.405,10.025 96.223,10.025ZM57.94,26.717C54.86,26.717 52.709,24.267 52.709,20.763C52.709,17.264 54.86,14.814 57.94,14.814C61.034,14.814 63.212,17.264 63.212,20.763C63.208,24.323 61.09,26.717 57.94,26.717ZM57.94,9.583C51.411,9.583 46.668,14.285 46.668,20.763C46.668,27.242 51.411,31.943 57.94,31.943C64.483,31.943 69.249,27.242 69.249,20.768C69.249,14.285 64.488,9.583 57.94,9.583Z" fill="#191825" fill-opacity="0.5"/>
</g>
</svg>
