<svg width="236" height="40" viewBox="0 0 236 40" fill="none" xmlns="http://www.w3.org/2000/svg" xmlns:xlink="http://www.w3.org/1999/xlink">
<mask id="mask_0_1156_1791" style="mask-type:alpha" maskUnits="userSpaceOnUse" x="0.11084" y="0" width="117.877289" height="20">
</mask>
<mask id="mask_0_1156_1796" style="mask-type:alpha" maskUnits="userSpaceOnUse" x="0.11084" y="0" width="117.877289" height="20">
</mask>
<g mask="url(#mask_0_1156_1791)">
<path d="M189.852,26.72C186.771,26.72 184.621,24.27 184.621,20.766C184.621,17.266 186.771,14.817 189.852,14.817C192.95,14.817 195.124,17.266 195.124,20.766C195.124,24.325 193.001,26.72 189.852,26.72ZM189.852,9.586C183.322,9.586 178.58,14.287 178.58,20.766C178.58,27.245 183.313,31.946 189.852,31.946C196.399,31.946 201.16,27.245 201.16,20.77C201.16,14.287 196.395,9.586 189.852,9.586Z" fill="#191825" fill-opacity="0.5"/>
</g>
<g mask="url(#mask_0_1156_1796)">
<path d="M136.379,25.765C133.013,25.765 131.82,22.832 131.82,20.083C131.82,18.867 132.129,14.921 136.066,14.921C138.018,14.921 140.62,15.483 140.62,20.281C140.615,24.816 138.308,25.765 136.379,25.765ZM143.811,9.976C142.641,9.976 141.743,10.441 141.292,11.293L141.126,11.624L140.841,11.371C139.846,10.51 138.064,9.492 135.177,9.492C129.421,9.492 125.549,13.811 125.549,20.248C125.549,26.676 129.559,31.166 135.297,31.166C137.254,31.166 138.805,30.706 140.03,29.775L140.5,29.421L140.5,30.019C140.5,32.906 138.635,34.495 135.255,34.495C133.607,34.495 132.115,34.094 131.116,33.731C129.813,33.335 129.044,33.666 128.519,34.969L128.026,36.176L127.335,37.939L127.764,38.165C129.928,39.316 132.746,39.998 135.288,39.998C140.528,39.998 146.647,37.318 146.647,29.766L146.665,9.962L143.811,9.962Z" fill="#191825" fill-opacity="0.5"/>
</g>
</svg>
