<svg width="144" height="40" viewBox="0 0 144 40" fill="none" xmlns="http://www.w3.org/2000/svg" xmlns:xlink="http://www.w3.org/1999/xlink">
<path d="M68.711,31.293L64.317,31.293C64.289,31.293 64.289,31.293 64.275,31.279L60.493,26.663L56.711,31.279C56.697,31.293 56.683,31.293 56.67,31.293L53.152,31.293C53.124,31.293 53.11,31.279 53.096,31.265C53.096,31.251 53.096,31.223 53.11,31.21L58.686,24.369L53.18,17.597C53.166,17.57 53.166,17.556 53.166,17.528C53.18,17.514 53.194,17.5 53.207,17.5L57.601,17.5C57.615,17.5 57.629,17.514 57.643,17.528L60.966,21.643L64.345,17.528C64.359,17.514 64.372,17.5 64.386,17.5L67.96,17.5C67.974,17.5 68.001,17.514 68.015,17.528C68.029,17.556 68.015,17.57 68.001,17.597L62.787,23.868L68.766,31.21C68.78,31.223 68.78,31.251 68.78,31.265C68.752,31.293 68.738,31.293 68.711,31.293Z" fill="#191825" fill-opacity="0.5"/>
<path d="M92.473,19.919C90.526,19.919 89.205,21.101 88.816,23.145L95.434,23.145L95.434,23.006C95.434,21.379 94.225,19.919 92.473,19.919ZM98.841,25.258C98.827,25.272 98.813,25.286 98.799,25.286L88.747,25.286C88.955,27.622 90.471,28.957 92.932,28.957C94.447,28.957 96.06,28.442 98.327,27.233C98.368,27.205 98.41,27.247 98.41,27.288L98.41,30.375C98.41,30.403 98.396,30.417 98.382,30.417C96.269,31.307 94.141,31.918 92.473,31.918C88.149,31.918 85.006,28.762 85.006,24.424C85.006,20.086 88.149,16.93 92.473,16.93C96.422,16.93 98.952,19.585 98.952,23.242C98.952,23.84 98.855,25.217 98.841,25.258Z" fill="#191825" fill-opacity="0.5"/>
<path d="M119.252,14.635C118.015,14.635 117.014,13.648 117.014,12.438C117.014,11.187 118.015,10.172 119.252,10.172C120.49,10.172 121.491,11.187 121.491,12.438C121.491,13.648 120.49,14.635 119.252,14.635ZM117.445,31.292C117.403,31.292 117.389,31.278 117.389,31.237L117.389,17.541C117.389,17.513 117.403,17.485 117.431,17.485L121.06,17.485C121.088,17.485 121.102,17.513 121.102,17.541L121.102,31.237C121.102,31.278 121.074,31.292 121.046,31.292L117.445,31.292Z" fill="#191825" fill-opacity="0.5"/>
<path d="M75.357,29.235C74.703,29.235 74.036,29.138 73.257,28.943L73.271,20.155C74.175,19.863 74.953,19.738 75.732,19.738C78.249,19.738 79.931,21.588 79.931,24.355C79.931,27.316 78.137,29.235 75.357,29.235ZM76.344,16.93C75.315,16.93 74.286,17.11 73.201,17.486L69.586,17.486C69.559,17.486 69.531,17.514 69.531,17.541L69.531,39.997C70.615,39.844 71.95,39.454 73.257,38.537L73.257,31.71C74.147,31.835 74.884,31.918 75.593,31.918C80.543,31.918 83.741,28.957 83.741,24.368C83.741,19.989 80.696,16.93 76.344,16.93Z" fill="#191825" fill-opacity="0.5"/>
<path d="M110.84,28.1C109.714,28.698 108.699,28.976 107.753,28.976C105.515,28.976 104.166,27.391 104.166,24.735C104.166,21.677 105.876,19.688 108.532,19.688C109.269,19.688 109.978,19.869 110.84,20.258L110.84,28.1ZM110.84,10.247L110.84,17.408C109.783,17.102 108.852,16.963 107.906,16.963C103.596,16.963 100.356,20.203 100.356,24.513C100.356,28.795 103.221,31.91 107.17,31.91C108.532,31.91 109.811,31.562 111.313,30.798L111.313,32.035C112.3,31.84 113.44,31.451 114.567,30.645L114.567,8.773C113.468,8.926 112.161,9.302 110.84,10.247Z" fill="#191825" fill-opacity="0.5"/>
<path d="M133.685,28.07C132.587,28.696 131.655,29.002 130.821,29.002C128.415,29.002 126.983,27.417 126.983,24.761C126.983,21.744 128.679,19.714 131.196,19.714C131.863,19.714 132.684,19.978 133.685,20.506L133.685,28.07ZM137.411,17.322C137.411,17.239 137.342,17.169 137.258,17.169L134.325,17.169C134.241,17.169 134.158,17.239 134.158,17.322L134.158,17.823L134.088,17.823C132.739,17.225 131.571,16.961 130.445,16.961C126.385,16.961 123.201,20.326 123.201,24.636C123.201,28.988 126.052,31.908 130.292,31.908C131.419,31.908 132.878,31.825 134.241,30.267L134.241,32.033C135.2,31.825 136.341,31.421 137.411,30.643L137.411,17.322Z" fill="#191825" fill-opacity="0.5"/>
<path d="M43.113,27.879L52.22,27.879C52.081,28.894 51.734,30.09 50.955,31.299L41.486,31.299C40.332,31.299 39.373,30.396 39.261,29.269C39.261,29.256 39.248,29.242 39.248,29.214L39.248,11.25C39.248,11.236 39.261,11.222 39.261,11.208C39.373,10.068 40.332,9.164 41.486,9.164L52.206,9.164C52.067,10.179 51.72,11.403 50.927,12.612L43.113,12.612L43.113,17.507L50.858,17.507C50.885,17.507 50.913,17.534 50.913,17.562L50.913,20.955C50.913,20.983 50.885,21.01 50.858,21.01L43.113,21.01L43.113,27.879Z" fill="#191825" fill-opacity="0.5"/>
<path d="M31.712,31.59C30.808,31.59 30.252,30.881 30.252,30.019C30.252,29.102 30.891,28.448 31.712,28.448C32.518,28.448 33.158,29.088 33.158,30.019C33.158,30.951 32.518,31.59 31.712,31.59ZM31.712,28.281C30.794,28.281 30.001,28.976 30.001,30.019C30.001,31.006 30.711,31.757 31.712,31.757C32.615,31.757 33.408,31.062 33.408,30.019C33.408,28.976 32.629,28.281 31.712,28.281Z" fill="#191825" fill-opacity="0.5"/>
<path d="M31.308,29.88L31.308,29.241L31.739,29.241C31.962,29.241 32.212,29.269 32.212,29.533C32.212,29.853 31.975,29.866 31.711,29.866C31.697,29.88 31.308,29.88 31.308,29.88ZM32.518,29.574C32.518,29.157 32.267,28.977 31.767,28.977L30.988,28.977L30.988,31.034L31.322,31.034L31.322,30.158L31.642,30.158L32.17,31.034L32.559,31.034L31.989,30.131C32.295,30.103 32.518,29.95 32.518,29.574Z" fill="#191825" fill-opacity="0.5"/>
<path d="M140.414,19.772C139.511,19.772 138.954,19.063 138.954,18.201C138.954,17.283 139.594,16.63 140.414,16.63C141.221,16.63 141.86,17.269 141.86,18.201C141.86,19.132 141.221,19.772 140.414,19.772ZM140.414,16.477C139.497,16.477 138.704,17.172 138.704,18.215C138.704,19.202 139.413,19.953 140.414,19.953C141.318,19.953 142.111,19.257 142.111,18.215C142.111,17.158 141.318,16.477 140.414,16.477Z" fill="#191825" fill-opacity="0.5"/>
<path d="M139.997,18.062L139.997,17.436L140.428,17.436C140.651,17.436 140.901,17.464 140.901,17.728C140.901,18.048 140.665,18.062 140.401,18.062L139.997,18.062ZM141.221,17.77C141.221,17.353 140.971,17.172 140.47,17.172L139.691,17.172L139.691,19.23L140.025,19.23L140.025,18.354L140.345,18.354L140.873,19.23L141.263,19.23L140.693,18.326C140.984,18.298 141.221,18.145 141.221,17.77Z" fill="#191825" fill-opacity="0.5"/>
<path d="M19.962,12.595L19.309,10.732L13.692,3.237L14.693,2.987L24.356,11.343L30.043,9.717C30.71,9.55 31.475,9.508 32.045,9.508C30.265,5.657 26.984,2.486 22.674,0.957C14.15,-2.088 4.765,2.375 1.734,10.912C0.789,13.554 0.58,16.279 0.969,18.866L14.581,14.138L19.962,12.595Z" fill="#191825" fill-opacity="0.5"/>
<path d="M32.657,10.984C32.156,11.304 31.42,11.735 30.697,11.972L24.996,13.598L21.2,25.806L20.213,26.126L21.019,16.81L20.574,14.878L15.235,16.407L1.108,19.702C2.235,25.125 6.072,29.866 11.676,31.855C20.213,34.9 29.584,30.436 32.629,21.899C33.936,18.242 33.853,14.405 32.657,10.984Z" fill="#191825" fill-opacity="0.5"/>
<path d="M20.56,14.865L21.005,16.797L20.199,26.113L21.186,25.793L24.982,13.585L30.683,11.959C31.406,11.722 32.143,11.305 32.643,10.971C32.462,10.471 32.268,9.984 32.045,9.498C31.461,9.498 30.711,9.525 30.043,9.706L24.356,11.333L14.693,2.977L13.692,3.227L19.295,10.721L19.949,12.584L14.568,14.128L0.956,18.855C0.997,19.133 1.053,19.425 1.109,19.703L15.221,16.38L20.56,14.865Z" fill="#FFFFFF"/>
</svg>
