<svg width="218" height="42" viewBox="0 0 218 42" fill="none" xmlns="http://www.w3.org/2000/svg" xmlns:xlink="http://www.w3.org/1999/xlink">
<path d="M124.364,38.929L140.994,1.293C141.257,0.722 140.948,0.231 140.309,0.231L128.658,0.231C128.317,0.251 127.987,0.36 127.702,0.549C127.417,0.737 127.188,0.998 127.036,1.305L110.612,38.929C110.372,39.512 110.68,39.991 111.308,39.991L122.742,39.991C123.381,39.991 124.112,39.512 124.364,38.929ZM183.998,28.798L209.811,0.243L179.623,0.243L172.793,11.242L184.638,11.242L158.401,40.003L190.349,40.003L202.249,28.798L183.998,28.798ZM73.524,0.231L53.536,0.231C52.943,0.266 52.37,0.456 51.875,0.783C51.379,1.11 50.979,1.562 50.715,2.093L34.987,38.141C34.53,39.169 35.089,40.003 36.209,40.003L46.112,40.003C47.231,40.003 48.51,39.169 48.944,38.152L53.433,27.93L58.082,27.93C59.532,27.838 60.149,28.375 59.35,30.054L55.9,38.141C55.466,39.169 56.014,40.003 57.134,40.003L67.037,40.003C67.632,39.971 68.207,39.783 68.705,39.455C69.203,39.128 69.605,38.675 69.869,38.141L74.37,27.735C75.786,24.355 73.741,21.739 70.772,21.602C73.399,20.654 75.82,18.038 76.905,15.662L79.235,10.18C82.045,3.806 80.046,0.151 73.524,0.243M67.699,11.608L65.232,17.033C64.661,18.335 63.839,18.438 63.016,18.404L57.454,18.404L61.177,9.951L66.511,9.951C67.813,10.031 68.145,10.5 67.699,11.608ZM112.428,0.22L91.251,0.22C90.827,0.242 90.417,0.376 90.061,0.609C89.706,0.842 89.419,1.165 89.23,1.545L73.022,38.666C72.713,39.397 73.09,39.98 73.89,39.98L96.563,39.98C103.747,39.877 107.87,38.289 111.148,30.682L113.479,25.611C115.306,21.271 113.513,19.386 110.086,18.838C112.942,17.958 115.089,15.274 116.014,12.91L117.91,8.889C120.24,3.521 118.299,0.151 112.416,0.22M102.034,25.12L100.595,28.01C99.875,30.02 98.619,30.568 96.848,30.591L90.223,30.591L93.399,23.11L100.023,23.11C101.897,23.247 102.628,23.703 102.034,25.12ZM105.837,11.802L104.844,14.086L104.695,14.383C104.53,14.86 104.212,15.268 103.791,15.545C103.369,15.822 102.868,15.951 102.365,15.914L96.62,15.914L99.247,9.86L105.106,9.86C106.157,9.928 106.328,10.614 105.837,11.802ZM144.661,0.231L139.738,11.242L146.762,11.242C147.242,11.242 147.47,11.585 147.276,12.03L134.998,39.215C134.792,39.649 135.032,40.003 135.512,40.003L148.019,40.003C148.498,40.003 149.047,39.649 149.241,39.203L161.028,12.03C161.141,11.802 161.313,11.607 161.526,11.467C161.738,11.326 161.985,11.245 162.239,11.231L169.446,11.231L176.231,0.231L144.661,0.231ZM40.892,13.778L42.445,10.385C45.575,3.235 43.507,0.163 37.362,0.243L22.571,0.243C16.483,0.163 11.411,3.589 8.602,9.963L4.033,22.87L-0.285,22.87L7.973,34.018L21.623,22.87L18.15,22.87L22.16,13.561C22.811,12.03 23.93,11.299 25.129,11.242L27.459,11.242C28.008,11.265 28.385,11.436 28.602,11.676L35.843,5.588L40.892,13.778Z" fill="#191825" fill-opacity="0.5"/>
<path d="M7.665,37.293L1.589,29.594L1.269,30.28C-1.552,36.699 -1.084,39.897 5.004,39.988L19.601,39.988C25.643,39.897 30.932,36.699 33.764,30.28L38.105,20.331L41.988,20.331L35.363,9.172L21.828,20.331L25.541,20.331L22.799,26.67C22.137,28.018 21.132,28.749 20.058,28.795L18.116,28.795L7.665,37.293Z" fill="#191825" fill-opacity="0.5"/>
<path d="M214.62,0C215.157,0 215.614,0.194 215.991,0.571C216.368,0.948 216.562,1.405 216.562,1.942C216.562,2.467 216.368,2.924 215.991,3.313C215.614,3.701 215.157,3.884 214.62,3.884C214.365,3.888 214.112,3.839 213.876,3.741C213.64,3.642 213.427,3.497 213.25,3.313C212.873,2.924 212.679,2.467 212.679,1.942C212.679,1.416 212.873,0.937 213.25,0.571C213.427,0.388 213.64,0.242 213.876,0.144C214.112,0.046 214.365,-0.003 214.62,0ZM214.62,3.518C214.83,3.523 215.038,3.485 215.233,3.406C215.427,3.328 215.604,3.21 215.751,3.061C215.901,2.914 216.019,2.738 216.097,2.543C216.176,2.349 216.214,2.14 216.208,1.93C216.212,1.723 216.173,1.516 216.095,1.324C216.016,1.131 215.899,0.957 215.751,0.811C215.604,0.662 215.428,0.544 215.233,0.465C215.039,0.387 214.83,0.349 214.62,0.354C214.413,0.35 214.206,0.388 214.013,0.467C213.821,0.545 213.646,0.662 213.501,0.811C213.193,1.12 213.044,1.496 213.044,1.93C213.044,2.364 213.193,2.753 213.501,3.061C213.809,3.37 214.186,3.518 214.62,3.518ZM215.614,2.97L215.157,2.97L214.586,2.147L214.346,2.147L214.346,2.97L213.935,2.97L213.935,0.88L214.586,0.88C214.815,0.88 214.997,0.937 215.134,1.04C215.272,1.154 215.351,1.302 215.351,1.496C215.351,1.748 215.214,1.942 214.952,2.045L215.614,2.97ZM214.358,1.805L214.575,1.805C214.837,1.805 214.963,1.702 214.963,1.508C214.963,1.314 214.849,1.222 214.586,1.222L214.358,1.222L214.358,1.805Z" fill="#191825" fill-opacity="0.5"/>
</svg>
