<svg width="54" height="32" viewBox="0 0 54 32" fill="none" xmlns="http://www.w3.org/2000/svg" xmlns:xlink="http://www.w3.org/1999/xlink">
<path d="M28.501,22.03C30.778,28.199 37.642,31.357 43.813,29.086C49.98,26.798 53.146,19.942 50.86,13.771C48.581,7.592 41.728,4.44 35.548,6.717C29.373,9.003 26.221,15.855 28.501,22.03Z" fill="#FFFFFF"/>
<path d="M13.26,29.775C19.843,29.775 25.179,24.439 25.179,17.856C25.179,11.274 19.843,5.938 13.26,5.938C6.678,5.938 1.341,11.274 1.341,17.856C1.341,24.439 6.678,29.775 13.26,29.775Z" fill="#FFFFFF"/>
<path d="M15.292,17.735C15.292,18.949 14.305,19.945 13.091,19.945C11.871,19.945 10.886,18.951 10.886,17.735C10.886,16.522 11.871,15.539 13.091,15.539C14.305,15.541 15.292,16.522 15.292,17.735Z" fill="#191825" fill-opacity="0.5"/>
<path d="M41.853,17.735C41.853,18.949 40.87,19.945 39.655,19.945C38.432,19.945 37.451,18.951 37.451,17.735C37.451,16.522 38.432,15.539 39.655,15.539C40.872,15.541 41.853,16.522 41.853,17.735Z" fill="#191825" fill-opacity="0.5"/>
<path d="M6.542,17.728C6.542,21.341 9.481,24.275 13.095,24.275C16.699,24.275 19.636,21.341 19.636,17.728C19.636,14.123 16.697,11.188 13.095,11.188C9.483,11.191 6.542,14.125 6.542,17.728ZM8.8,17.728C8.8,15.364 10.731,13.442 13.098,13.442C15.462,13.442 17.382,15.369 17.382,17.728C17.382,20.098 15.462,22.024 13.098,22.024C10.731,22.026 8.8,20.102 8.8,17.728Z" fill="#191825" fill-opacity="0.5"/>
<path d="M33.106,17.728C33.106,21.341 36.042,24.275 39.654,24.275C43.26,24.275 46.194,21.341 46.194,17.728C46.194,14.123 43.26,11.188 39.654,11.188C36.044,11.191 33.106,14.125 33.106,17.728ZM35.364,17.728C35.364,15.364 37.29,13.442 39.659,13.442C42.023,13.442 43.941,15.369 43.941,17.728C43.941,20.098 42.023,22.024 39.659,22.024C37.287,22.026 35.364,20.102 35.364,17.728Z" fill="#191825" fill-opacity="0.5"/>
<path d="M35.089,5.465C36.47,4.957 37.882,4.71 39.277,4.671C35.478,2.971 31.178,2.109 26.413,2.109C21.686,2.109 17.322,2.99 13.525,4.614C20.397,4.75 25.984,10.132 26.466,16.916C26.583,15.359 26.964,13.82 27.637,12.362C29.118,9.137 31.767,6.69 35.089,5.465Z" fill="#FFFFFF"/>
<path d="M50.337,10.028C50.959,7.368 52.93,4.706 52.93,4.706L44.081,4.701C39.119,1.497 33.093,-0.203 26.417,-0.203C19.486,-0.203 13.229,1.537 8.295,4.764L0,4.771C0,4.771 1.949,7.403 2.579,10.044C0.966,12.238 0.007,14.934 0.007,17.86C0.007,25.167 5.954,31.11 13.264,31.11C17.442,31.11 21.169,29.163 23.599,26.137L26.422,30.363L29.266,26.1C30.545,27.728 32.196,29.048 34.131,29.943C37.349,31.423 40.955,31.569 44.275,30.342C51.133,27.806 54.655,20.16 52.118,13.311C51.673,12.106 51.066,11.01 50.337,10.028ZM26.415,2.111C31.179,2.111 35.479,2.973 39.278,4.674C37.882,4.711 36.471,4.96 35.091,5.465C31.769,6.69 29.119,9.137 27.642,12.356C26.969,13.815 26.59,15.354 26.471,16.911C25.986,10.13 20.399,4.748 13.527,4.609C17.322,2.99 21.684,2.111 26.415,2.111ZM22.023,23.781C20.12,26.588 16.9,28.438 13.26,28.438C7.425,28.438 2.676,23.686 2.676,17.862C2.676,12.023 7.426,7.28 13.26,7.28C19.094,7.28 23.843,12.023 23.843,17.862C23.843,18.219 23.774,18.554 23.737,18.898C23.56,20.686 22.985,22.362 22.023,23.781ZM43.349,27.834C40.697,28.808 37.822,28.701 35.253,27.516C33.432,26.672 31.94,25.35 30.865,23.709C30.427,23.045 30.042,22.34 29.758,21.569C29.435,20.697 29.274,19.799 29.188,18.893C29.011,17.057 29.278,15.2 30.069,13.479C31.255,10.911 33.366,8.957 36.018,7.975C41.493,5.956 47.589,8.764 49.612,14.238C51.633,19.712 48.823,25.807 43.349,27.834Z" fill="#191825" fill-opacity="0.5"/>
</svg>
