<svg width="24" height="16" viewBox="0 0 24 16" fill="none" xmlns="http://www.w3.org/2000/svg" xmlns:xlink="http://www.w3.org/1999/xlink">
<path d="M4.32,6.718L21.71,6.718C22.417,6.718 22.99,7.292 22.99,7.998C22.99,8.705 22.417,9.278 21.71,9.278L4.32,9.278L8.471,13.429C8.97,13.929 8.97,14.739 8.471,15.239C7.971,15.739 7.16,15.739 6.66,15.239L1.23,9.809C0.23,8.809 0.23,7.188 1.23,6.188L6.66,0.758C7.16,0.258 7.971,0.258 8.471,0.758C8.97,1.258 8.97,2.068 8.471,2.568L4.32,6.718Z" transform="rotate(360 11.735 7.998)" fill="#FFFFFF"/>
</svg>
