<svg width="80" height="80" viewBox="0 0 80 80" fill="none" xmlns="http://www.w3.org/2000/svg" xmlns:xlink="http://www.w3.org/1999/xlink">
<path d="M56.76,0L23.24,0C8.68,0 0,8.68 0,23.24L0,56.72C0,71.32 8.68,80 23.24,80L56.72,80C71.28,80 79.96,71.32 79.96,56.76L79.96,23.24C80,8.68 71.32,0 56.76,0ZM60,61L20,61C18.36,61 17,59.64 17,58C17,56.36 18.36,55 20,55L60,55C61.64,55 63,56.36 63,58C63,59.64 61.64,61 60,61ZM60,43L20,43C18.36,43 17,41.64 17,40C17,38.36 18.36,37 20,37L60,37C61.64,37 63,38.36 63,40C63,41.64 61.64,43 60,43ZM60,25L20,25C18.36,25 17,23.64 17,22C17,20.36 18.36,19 20,19L60,19C61.64,19 63,20.36 63,22C63,23.64 61.64,25 60,25Z" fill="#5D50C6"/>
</svg>
