<svg width="20" height="30" viewBox="0 0 20 30" fill="none" xmlns="http://www.w3.org/2000/svg" xmlns:xlink="http://www.w3.org/1999/xlink">
<path d="M10.696,-0.367C7.743,-0.367 5.259,1.031 3.603,3.575C3.603,2.558 3.603,0.127 3.603,0.127L-0.332,0.127L-0.332,29.996L3.976,29.996C3.976,29.996 3.976,19.566 3.976,18.418C5.529,20.531 7.757,21.693 10.53,21.693C15.97,21.693 19.485,17.229 19.485,10.335C19.485,3.935 15.951,-0.367 10.696,-0.367ZM9.494,18.212C6.089,18.212 3.974,15.301 3.974,10.625C3.974,6.111 6.205,3.195 9.658,3.195C12.985,3.195 14.975,5.959 14.975,10.581C14.976,15.285 12.874,18.212 9.494,18.212Z" fill="#191825" fill-opacity="0.5"/>
</svg>
