<svg width="20" height="22" viewBox="0 0 20 22" fill="none" xmlns="http://www.w3.org/2000/svg" xmlns:xlink="http://www.w3.org/1999/xlink">
<path d="M10.064,-0.367C7.432,-0.367 5.126,0.131 3.012,1.147L2.881,1.211L2.927,4.884L3.266,4.694C5.287,3.564 7.2,2.987 8.943,2.987C12.06,2.987 13.85,4.773 13.85,7.896C13.85,7.896 13.85,7.986 13.85,8.078C13.47,8.078 11.388,8.078 11.388,8.078C4.302,8.078 0.404,10.644 0.404,15.297C0.404,19.034 3.218,21.647 7.246,21.647C10.21,21.647 12.503,20.482 14.138,18.289C14.138,19.142 14.138,21.354 14.138,21.354L18.027,21.354L18.027,8.51C18.025,2.623 15.347,-0.367 10.064,-0.367ZM13.843,12.395C13.843,16.051 11.643,18.417 8.24,18.417C6.155,18.417 4.701,17.047 4.701,15.087C4.701,12.512 7.163,11.098 11.633,11.098C11.633,11.098 13.474,11.098 13.846,11.098C13.843,11.428 13.843,12.395 13.843,12.395Z" fill="#191825" fill-opacity="0.5"/>
</svg>
