<svg width="22" height="32" viewBox="0 0 22 32" fill="none" xmlns="http://www.w3.org/2000/svg" xmlns:xlink="http://www.w3.org/1999/xlink">
<path d="M16.303,0C16.303,0 16.303,11.832 16.303,13.015C14.716,10.808 12.508,9.64 9.671,9.64C4.406,9.64 0.868,13.975 0.868,20.418C0.868,27.056 4.457,31.691 9.585,31.691C12.623,31.691 14.992,30.346 16.633,27.732C16.633,28.789 16.633,31.361 16.633,31.361L20.612,31.361L20.612,0L16.303,0ZM10.7,28.129C7.421,28.129 5.384,25.269 5.384,20.665C5.384,16.056 7.438,13.077 10.623,13.077C14.178,13.077 16.3,15.912 16.3,20.665C16.303,25.207 14.111,28.129 10.7,28.129Z" fill="#191825" fill-opacity="0.5"/>
</svg>
