<svg width="42" height="42" viewBox="0 0 42 42" fill="none" xmlns="http://www.w3.org/2000/svg" xmlns:xlink="http://www.w3.org/1999/xlink">
<path d="M20.938,0.844C9.898,0.844 0.938,9.804 0.938,20.844C0.938,31.884 9.898,40.844 20.938,40.844C31.978,40.844 40.938,31.884 40.938,20.844C40.938,9.804 31.998,0.844 20.938,0.844ZM26.938,25.304L21.137,28.644C20.417,29.064 19.618,29.264 18.837,29.264C18.038,29.264 17.257,29.064 16.538,28.644C15.097,27.804 14.238,26.324 14.238,24.644L14.238,17.944C14.238,16.284 15.097,14.784 16.538,13.944C17.978,13.104 19.697,13.104 21.158,13.944L26.957,17.284C28.397,18.124 29.257,19.604 29.257,21.284C29.257,22.964 28.397,24.464 26.938,25.304Z" fill="#5D50C6"/>
</svg>
