<svg width="16" height="28" viewBox="0 0 16 28" fill="none" xmlns="http://www.w3.org/2000/svg" xmlns:xlink="http://www.w3.org/1999/xlink">
<path d="M8.565,-0.267L4.685,1.073C4.685,1.073 4.685,5.719 4.685,6.136C4.279,6.136 0.385,6.136 0.385,6.136L0.385,9.53C0.385,9.53 4.159,9.53 4.569,9.53C4.569,9.972 4.569,20.429 4.569,20.429C4.569,25.608 6.332,27.733 10.669,27.733C11.769,27.733 12.819,27.597 13.873,27.31L14.045,27.267L13.997,23.748L13.7,23.861C12.848,24.155 12.18,24.3 11.665,24.3C9.628,24.3 8.872,23.154 8.872,20.062C8.872,20.062 8.872,9.97 8.872,9.536C9.286,9.536 13.834,9.536 13.834,9.536L13.834,6.136C13.834,6.136 9.287,6.136 8.872,6.136C8.872,5.716 8.872,-0.367 8.872,-0.367L8.565,-0.267Z" fill="#191825" fill-opacity="0.5"/>
</svg>
