<svg width="128" height="40" viewBox="0 0 128 40" fill="none" xmlns="http://www.w3.org/2000/svg" xmlns:xlink="http://www.w3.org/1999/xlink">
<path d="M66.986,10.051C66.986,11.492 65.825,12.653 64.383,12.653C62.942,12.653 61.781,11.492 61.781,10.051C61.781,8.609 62.902,7.448 64.383,7.448C65.866,7.488 66.986,8.649 66.986,10.051ZM56.255,15.296L56.255,15.937C56.255,15.937 55.015,14.335 52.372,14.335C48.008,14.335 44.604,17.658 44.604,22.262C44.604,26.827 47.968,30.19 52.372,30.19C55.055,30.19 56.255,28.549 56.255,28.549L56.255,29.229C56.255,29.549 56.496,29.789 56.816,29.789L60.059,29.789L60.059,14.734L56.816,14.734C56.496,14.735 56.255,15.016 56.255,15.296ZM56.255,24.945C55.655,25.826 54.454,26.587 53.013,26.587C50.45,26.587 48.488,24.986 48.488,22.262C48.488,19.54 50.45,17.938 53.013,17.938C54.414,17.938 55.695,18.739 56.255,19.58L56.255,24.945ZM62.462,14.735L66.305,14.735L66.305,29.79L62.462,29.79L62.462,14.735ZM119.879,14.334C117.236,14.334 115.994,15.936 115.994,15.936L115.994,7.488L112.151,7.488L112.151,29.79L115.394,29.79C115.715,29.79 115.954,29.51 115.954,29.229L115.954,28.549C115.954,28.549 117.196,30.191 119.838,30.191C124.202,30.191 127.606,26.828 127.606,22.264C127.606,17.699 124.202,14.334 119.879,14.334ZM119.238,26.547C117.756,26.547 116.595,25.787 115.994,24.905L115.994,19.54C116.595,18.739 117.876,17.898 119.238,17.898C121.8,17.898 123.762,19.5 123.762,22.222C123.762,24.945 121.8,26.547 119.238,26.547ZM110.149,20.862L110.149,29.83L106.305,29.83L106.305,21.302C106.305,18.82 105.504,17.818 103.343,17.818C102.182,17.818 100.981,18.419 100.219,19.3L100.219,29.791L96.376,29.791L96.376,14.735L99.418,14.735C99.739,14.735 99.979,15.016 99.979,15.296L99.979,15.937C101.1,14.775 102.581,14.335 104.062,14.335C105.744,14.335 107.146,14.816 108.267,15.776C109.628,16.898 110.149,18.339 110.149,20.862ZM87.046,14.334C84.404,14.334 83.162,15.936 83.162,15.936L83.162,7.488L79.319,7.488L79.319,29.79L82.561,29.79C82.882,29.79 83.122,29.51 83.122,29.229L83.122,28.549C83.122,28.549 84.364,30.191 87.006,30.191C91.37,30.191 94.773,26.828 94.773,22.264C94.813,17.698 91.41,14.334 87.046,14.334ZM86.405,26.547C84.924,26.547 83.763,25.787 83.162,24.905L83.162,19.54C83.763,18.739 85.044,17.898 86.405,17.898C88.968,17.898 90.929,19.5 90.929,22.222C90.929,24.945 88.968,26.547 86.405,26.547ZM75.995,14.334C77.156,14.334 77.757,14.535 77.757,14.535L77.757,18.098C77.757,18.098 74.553,17.017 72.552,19.3L72.552,29.83L68.708,29.83L68.708,14.735L71.951,14.735C72.271,14.735 72.511,15.015 72.511,15.296L72.511,15.936C73.233,15.095 74.794,14.334 75.995,14.334ZM36.076,28.429C35.876,27.948 35.676,27.428 35.476,26.987C35.155,26.267 34.835,25.585 34.555,24.945L34.515,24.905C31.752,18.899 28.79,12.813 25.666,6.808L25.546,6.567C25.217,5.944 24.897,5.317 24.586,4.685C24.185,3.964 23.785,3.204 23.144,2.483C21.863,0.881 20.021,0 18.059,0C16.057,0 14.255,0.881 12.935,2.402C12.334,3.123 11.893,3.884 11.493,4.605C11.181,5.236 10.86,5.863 10.533,6.487L10.412,6.727C7.329,12.733 4.326,18.819 1.564,24.825L1.523,24.904C1.243,25.546 0.923,26.226 0.602,26.946C0.402,27.387 0.202,27.867 0.002,28.388C-0.519,29.869 -0.679,31.271 -0.478,32.713C-0.038,35.716 1.964,38.237 4.727,39.359C5.768,39.8 6.849,40 7.97,40C8.29,40 8.69,39.96 9.011,39.92C10.333,39.76 11.694,39.32 13.015,38.559C14.657,37.638 16.219,36.317 17.98,34.395C19.742,36.317 21.343,37.638 22.945,38.559C24.267,39.32 25.628,39.76 26.949,39.92C27.269,39.96 27.67,40 27.99,40C29.112,40 30.232,39.8 31.233,39.359C34.036,38.237 35.998,35.676 36.439,32.713C36.757,31.311 36.597,29.911 36.076,28.429ZM18.019,30.511C15.857,27.788 14.455,25.225 13.975,23.064C13.775,22.143 13.735,21.342 13.855,20.621C13.935,19.98 14.175,19.42 14.496,18.939C15.257,17.859 16.538,17.178 18.019,17.178C19.501,17.178 20.823,17.818 21.543,18.939C21.864,19.42 22.104,19.981 22.184,20.621C22.304,21.342 22.264,22.183 22.064,23.064C21.582,25.185 20.181,27.748 18.019,30.511ZM33.994,32.393C33.714,34.475 32.312,36.277 30.351,37.078C29.39,37.478 28.348,37.598 27.308,37.478C26.307,37.357 25.306,37.037 24.265,36.437C22.824,35.635 21.383,34.395 19.701,32.553C22.343,29.31 23.944,26.346 24.545,23.704C24.826,22.463 24.866,21.342 24.745,20.3C24.586,19.3 24.225,18.378 23.664,17.578C22.422,15.775 20.34,14.735 18.019,14.735C15.697,14.735 13.615,15.816 12.373,17.578C11.813,18.378 11.452,19.3 11.292,20.3C11.132,21.342 11.172,22.503 11.492,23.704C12.093,26.346 13.734,29.349 16.337,32.593C14.695,34.435 13.213,35.676 11.772,36.477C10.731,37.078 9.73,37.398 8.73,37.518C7.649,37.638 6.607,37.478 5.686,37.118C3.725,36.317 2.323,34.515 2.043,32.433C1.923,31.432 2.003,30.431 2.404,29.31C2.523,28.909 2.724,28.509 2.924,28.029C3.204,27.388 3.524,26.707 3.845,26.026L3.885,25.947C6.648,19.98 9.61,13.895 12.693,7.969L12.813,7.728C13.134,7.128 13.455,6.487 13.775,5.887C14.095,5.246 14.455,4.645 14.896,4.124C15.737,3.164 16.857,2.643 18.099,2.643C19.341,2.643 20.461,3.164 21.302,4.124C21.743,4.646 22.103,5.247 22.423,5.887C22.744,6.487 23.064,7.128 23.384,7.728L23.504,7.969C26.541,13.919 29.464,19.926 32.273,25.987L32.273,26.027C32.594,26.668 32.874,27.388 33.194,28.03C33.394,28.509 33.595,28.909 33.715,29.31C34.034,30.35 34.154,31.352 33.994,32.393Z" fill="#191825" fill-opacity="0.5"/>
</svg>
