<svg width="14" height="22" viewBox="0 0 14 22" fill="none" xmlns="http://www.w3.org/2000/svg" xmlns:xlink="http://www.w3.org/1999/xlink">
<path d="M-0.122,5.575C-0.122,8.56 1.929,10.132 5.717,11.986C8.106,13.16 9.354,13.852 9.354,15.506C9.354,17.202 7.821,18.298 5.442,18.298C3.76,18.298 1.892,17.825 0.042,16.916L-0.272,16.761L-0.412,20.503L-0.269,20.556C1.5,21.26 3.359,21.605 5.279,21.605C10.543,21.605 13.941,19.096 13.941,15.215C13.941,11.979 11.79,10.335 8.06,8.595C5.329,7.312 4.183,6.565 4.183,5.204C4.183,3.915 5.458,3.075 7.428,3.075C9.207,3.075 10.944,3.471 12.587,4.254L12.898,4.397L13.085,0.736L12.914,0.687C11.131,0.157 9.371,-0.109 7.677,-0.109C3.013,-0.116 -0.122,2.171 -0.122,5.575Z" fill="#191825" fill-opacity="0.5"/>
</svg>
